# xmcd
#
# Track frame offsets:
#	150
#	20495
#	42850
#	63875
#	74618
#	192233
#	212378
#	228893
#	252725
# Disc length: 4347 seconds
# Revision: 1
# Processed by: cddbd v1.5.2PL0 Copyright (c) Steve Scherf et al.
#
# Submitted via: libkcddb 0.31
#
DISCID=7b10f909
DTITLE=Multiple - Sampler MusiFrance
DYEAR=1990
DGENRE=Divers
TTITLE0=Jean-Philippe Rameau - Platée - Ouverture | Les Musiciens du Louvre, Marc Minkowski
TTITLE1=Jean-Philippe Rameau - Platée - Menuets en goût de vièle, et airs | Les Musiciens du Louvre, Marc Minkowski
TTITLE2=Edouard Lalo - Le roi d'Ys - Acte II Tableau 1 "Soyez maudits !" | Orch Radio France, Armin Jordan
TTITLE3=Edouard Lalo - Le roi d'Ys - Acte III Tableau 1 "Salut à l'époux" | Orch Radio France, Armin Jordan
TTITLE4=Florent Schmitt - Psaume 47 Op. 38 | Orch. Radio France, Marek Janowski
TTITLE5=Gabriel Fauré - 1er impromptu Op. 25 | Jean Hubeau
TTITLE6=Gabriel Fauré - 2ème impromptu Op. 31 | Jean Hubeau
TTITLE7=Jean-Henry d'Anglebert - Chacone 4ème suite | Scott Ross
TTITLE8=Maurice Ohana - Le livre des prodiges | ONF, Stanislas Skrowaczewski
EXTD=
EXTT0=
EXTT1=
EXTT2=
EXTT3=
EXTT4=
EXTT5=
EXTT6=
EXTT7=
EXTT8=
PLAYORDER=
